<svg id="svg8484" xmlns="http://www.w3.org/2000/svg" viewBox="0 0 315.29 401.85"><defs><style>.cls-1{fill:#e7e7e7;}</style></defs><polygon id="map__leszno" class="cls-1" points="66.31 281.94 66.42 283.39 65.9 286.13 67.19 288.15 71.16 288.05 72.21 285.9 73.16 284.35 72.85 282.46 73.89 280.59 73.74 280 72.61 280.77 72.61 280.77 72.61 280.77 70.49 280.35 68.83 280.32 67.65 281.82 66.31 281.94"/><path id="map__konin" class="cls-1" d="M229.32,216.81a.92.92,0,0,0,0,.24l.84.86,2.17.22.83,3.73L232,224.58l-3.16.12-.27,2.05.24,1.61,2.58,1.54-.82,3.35.07.74,3.86-.11,1.62-.51.75-2.25-.15-4.47,2.55,0,.25-.56-1.09-.78-3-.76,1.61-2.9,1.67-1.28.61-2.36-.61-2.88-.48-1.16-1.7-.43-2-.4-1.72-.65-.44,1.05-.67,2.28-2.12.34A1.19,1.19,0,0,0,229.32,216.81Z" transform="translate(0 0)"/><polygon id="map__poznan" class="cls-1" points="94.27 185.77 94.63 188.14 95.45 192.03 95.15 200.06 97.49 201.95 97.89 204.72 100.95 204.04 100.95 204.04 100.95 204.04 104.2 205.11 105.5 207.77 106.59 209.24 108.85 211.23 110.19 212.94 111.89 214.56 112.24 214.28 112.53 212.93 112.21 209.88 113.35 207.84 117.35 206.68 118.69 204.28 117.94 199.73 116.82 196.63 118.33 194.6 115.71 193.18 115.9 191.32 114.63 190.76 111.53 192.1 111.53 192.1 111.53 192.1 108.79 191.06 109.08 188.58 109.26 185.86 109.06 181.61 106.86 182.07 105.14 182.82 103.88 184.18 103.8 187.31 103.8 187.31 103.8 187.31 99.42 186.98 96.08 186.01 94.04 183.56 91.56 182.8 88.64 183.9 87.94 185.96 88.34 186.08 89.3 184.38 92.07 184.18 92.07 184.18 92.07 184.18 94.27 185.77"/><polygon id="map__kalisz" class="cls-1" points="220.61 304.33 222.51 303.42 222.42 301.29 219.54 299.05 219.06 296.87 218.15 295.8 216.35 295.4 214.5 297.2 212.39 297.31 211.4 299.45 210.45 299.79 211.05 300.86 209.62 300.46 209.5 301.85 210.49 304.7 209.11 305.57 210.17 306.86 213.06 306.37 213.94 308.06 216.1 306.81 219.45 307.04 220.61 304.33"/><path id="map__powiat_zlotowski" class="cls-1" d="M67.83,31.17l.76,1.57,1.38,4,1.82,1.16,1.5,1.72L74.59,41l1.48.39,1.54,1.21,1.43.75,1.16.51,3.17,0,1.55,4,4,2.16,1,2.79-.86.95,2.38.89L92.55,56l2-.49,1.1,2-.36,1.84,1.58,2,.57,2.53-.25,2.47-1.9.83,0,1.76-.41,1.48L96,71.43l3-.12,3.44,2,1.24,1.27,3.47-.77.54-3.3,3.93-2.44,4.89-1.7,2.33-.16,2.56.35,1-.7.77-1.92,2.14-2.38,2.23-1.26L131,60l2.25-.31,1.32-.24.34-.66,1-2.85,2.19-1,2.25-1.38,1.42-2.15.72-3.48.48-2.65,0-.13-.17-3,.83-2.86.24-3.11,2.45-1.78,1.39-2.09,2.73-1.7,1.74-1.72,1.13-2.49.81-2.1-.65.14-3.24-.68-1.45-1.89-3.5-3.27-2.16-.36-8.27-.16-2.66-.78-3.43-.57-1.18.56-1.2,1.32-2,1.28-3.46-.47-2-.47-1.5-1.5,0-1.7-.34,0-.91.08c-.17,0-.35,0-.53,0a2.7,2.7,0,0,0-.82.1,2.05,2.05,0,0,0-.47.38,4.88,4.88,0,0,1-.54.48,1.83,1.83,0,0,1-1.57.38l-.45-.14-.06-.47a5,5,0,0,0-.61-1.66,10.11,10.11,0,0,1-.45-1,9.5,9.5,0,0,1-.34-1.32,7.47,7.47,0,0,0-.39-1.38,6.38,6.38,0,0,0-.76-1.21A12.41,12.41,0,0,1,108.54,9c-.31-.57-.59-1.16-.86-1.73-.16-.35-.32-.71-.5-1s-.27-.5-.41-.75A9,9,0,0,1,106,4a21,21,0,0,1-.64-2.38c-.09-.41-.18-.81-.28-1.21L105,0l-1.71.34L98.55,1.72l-1.25.84-.91.75-.7,2.49-.06,2.81L94,10.74,93.5,12.8,93,17l-1.24,1.4-1.93.78-1.38,1.15-1.17,1.51-1.89,1.86L83,24l-3.1,0-3.18.12-1.85.31-1.78,1-2.63,0-2-.91-1.44-1-.41.05-.36.92.13,1.19,1,.66.9,1.68,0,2Z" transform="translate(0 0)"/><polygon id="map__powiat_wrzesinski" class="cls-1" points="147.79 197.69 147.52 199.11 149.19 201.81 149.33 204.55 149.33 204.55 149.33 204.56 149.3 204.65 148.96 205.96 149.94 207.2 152.64 207.23 154.18 210.44 152.74 213.54 153.94 216.2 154.57 217.35 156.28 217.5 159.71 216.55 161.37 220.22 158.05 223.62 156.3 224.65 156.56 225.4 158.51 228.65 158.49 229.93 158.47 231.2 154.69 232.04 154.15 234.27 155.37 236.81 156.59 239.6 157.01 241.65 157.08 241.67 158.3 240.63 160.76 238.4 161.09 238.38 165.13 238.1 165.23 238.1 165.28 238.1 165.31 238.1 165.39 238.1 165.38 238.11 170.07 238.5 174.07 238.21 175.61 239 175.99 240.92 176.48 243.79 176.45 246.17 177.04 247.89 178.34 250.24 180.16 250.57 182.49 249.13 186.64 248.45 189.39 248.21 186.62 244.97 185.69 242.61 188.73 235.81 190.84 235.98 191.29 233.72 188.88 233.13 186.23 230.97 184.79 227.37 186.72 225.34 186.85 223.85 185.15 222.12 181.27 220.64 177.45 214 182.32 212.51 182.48 211.87 180.99 209.71 178.94 206.27 179.5 203.36 176.96 202.13 172.08 201.18 169.69 199.44 165.23 198.84 163.24 198.14 159.87 197.66 159.64 198.96 159.81 202.17 157.03 201.84 155.35 199.53 153.62 197.89 150.55 196.5 147.79 197.69"/><polygon id="map__powiat_wolsztynski" class="cls-1" points="14.85 258.72 17.56 259.58 20.13 259.79 22.9 259.84 24.6 260.25 26.46 261.52 27.58 263.62 28.54 266.06 28.34 267.04 30.14 267.36 33.38 267.76 36.2 268.3 38.04 267.82 40.49 267.85 41.99 265.31 44.21 263.14 46.59 259.69 49.86 260.47 52.88 258.06 55.6 260.83 54.35 262.06 55.29 262.63 58.29 257.79 57.54 253.31 55.51 253.46 51.3 250.88 50.03 247.44 47.62 247.27 44.76 248.59 41.76 248.98 40.6 245.76 39.23 244.09 35.61 244.57 34.32 241.65 36.24 239.95 36.04 239.54 33.82 239.82 30.34 236.66 29.32 233.95 30.09 232.21 28.88 231.48 25.55 232.53 21.78 233.43 21.82 229.64 23.34 227.5 22.6 225.15 22.63 221.8 22.15 219.53 21.49 219.51 20.01 221.14 18.01 221.71 17.82 223.29 14.6 224.11 12.38 223.92 11.31 225.93 8.21 226.06 6.46 227.58 3.46 227.75 3.45 228.18 3.07 231.44 2.3 234.86 1.9 237.11 1.55 238.59 1.68 240.05 3.04 241.93 5.48 243.59 7.28 244.28 9.12 244.65 11.29 245.3 13.59 246.65 14.92 248.94 13.86 251.19 12.47 251.62 12.45 253.36 12.73 255.94 13.82 257.66 14.85 258.72"/><polygon id="map__powiat_wagrowiecki" class="cls-1" points="144.85 93.59 144.99 96.61 142.78 98.54 140.29 100.79 136.95 100.73 135.06 100.95 135.3 108.09 133.71 111.02 133.84 114.02 131.17 115.77 132.29 118.7 126.33 119.6 123.31 121.44 121.84 124.45 121.18 127.18 122.7 129.9 120.71 131.78 117.41 130.82 117.77 134.02 117.43 136.19 119.2 138.01 122.59 138.35 124.65 136.66 126.98 136.71 127.84 143.71 128.66 146.73 126.57 147.57 127.54 150.92 128.67 153.65 127.21 155.86 125.04 155.02 124.16 153.62 121.84 153.88 119.75 153.85 119.12 154.33 121.68 155.88 121.15 159.01 119.64 159.74 119.89 160.52 122.33 159.95 124.2 161.31 127.11 161.94 127.72 164.84 127 167.44 127.63 170.54 128.19 170.44 128.75 168.43 132.88 168.5 135.3 167.81 136 165.25 138.18 163.3 139.47 161.16 142.68 159.45 145.34 159.05 146.85 154.25 150.66 154.7 152.12 153.84 153.75 152.29 155.06 151.42 155.44 149.82 156.69 147.41 158.29 144.82 158.04 144.72 156.56 142.84 154.4 142.15 154.24 135.74 156.64 135.78 158 134.62 161.19 135.11 162.6 135.27 163.17 134.5 163.23 132.81 163.96 130.53 163.63 127.92 164.26 124.69 164.2 115.18 161.66 111.46 157.1 108.48 154.6 107.17 152.73 106.64 146.1 106.93 144.52 103.43 144.99 100.13 147.4 97.63 146.74 93.49 147.57 90.68 145.32 90.81 144.59 91.01 144.85 93.59"/><path id="map__powiat_turecki" class="cls-1" d="M246.42,240.8l-2.68-.36-2.34,3.45-3.8-.91L236,245.11l-4.59,2.61-.45,1.7v1.82l.74,1.91,1.29,2.27h0l.09.17h0l0,0h0l1.37,2.73,1.41,5.69,2.2,2.11,1.05,3.26,1.94,4.07,1.82,2.48,3.11.19,2.72.46,1,2.48.73,1.65,2.89,1.64,1.94,2,1.15,1.48,2.93.25,1.51,1.76,1,.12,2.66-1.28,3.64.53,3.51,1.53,1.68.43,1.2-1.58,1-1.18.8-1.58.84-1.79,1-1.69a17.41,17.41,0,0,1,1.22-1.56c.28-.34.56-.67.81-1a5.42,5.42,0,0,0,.62-1.35,10.18,10.18,0,0,1,.52-1.26,8.21,8.21,0,0,1,.76-1.1l.2-.26-1.72-1.7-.75-1.5-1-2.7-.37-2.86.81-1.91-.14-.21c-.1-.15-.2-.3-.29-.46l-.09-.15a8,8,0,0,1-1.09-2.38,10.83,10.83,0,0,1-.18-2.59c0-.28,0-.56,0-.84s0-.72.05-1.08a5.16,5.16,0,0,0,0-1.47,1.9,1.9,0,0,0-.1-.28,1.11,1.11,0,0,1-.07-.16l-.44-.48-.78-.3-1.71-1.58-1.14-1.38-.71-3.09-.13-2.75.2-3-.07-.12-1.47.6-2,1.14-2.44-1.05-1.72-.48-3.36-.43-3.15-1-3.44-2.47-1.63-1.27-3.64.26Z" transform="translate(0 0)"/><polygon id="map__powiat_szamotulski" class="cls-1" points="64.16 198.89 65.28 198.06 67.11 195.52 69.89 196.29 70.76 198.57 71.88 198.15 72.3 194.41 74.22 194.13 74.1 193.3 70.03 192.5 70.92 188.92 75.18 188.84 74.92 186.44 77.2 183.11 80 178.35 78.86 176.03 80.85 174.69 83.15 174.72 85.49 174.97 85.95 176.86 87.39 176.98 87.45 175.12 88.48 171.9 88.2 170.93 84.59 171.04 82.71 170.06 82.22 167.33 79.83 164.85 79.36 161.17 78 159.63 77.48 157.09 76.12 154.22 79.11 151.64 78.06 150.56 75.62 149.61 73.85 148.28 74.5 145.68 74.17 143.14 72.33 143.32 72.23 143.34 72.22 143.34 72.22 143.34 69.06 141.86 65.65 141.5 62.79 143.54 60.29 141.5 61.83 139.19 59.65 137.89 57.24 137.19 55.73 137.17 55.19 140.37 51.39 140.83 50.39 137.15 46.92 137.43 43.49 134.99 40.95 133.66 37.47 133.63 34.33 133.75 31.91 136.1 29.76 137.84 28.22 138.84 26.89 140.61 25.09 143.45 22.94 141.92 21.91 141.97 22.25 142.47 24.86 143.95 26.56 145.71 29.1 146.07 30.67 147.33 32.37 147.83 34.21 148.01 36.09 148.38 38.45 148.22 39.42 150.81 40.95 152.1 43.06 152.14 44.14 154.57 46.18 155.49 50.39 155.94 51.2 159.14 51.15 162.18 46.39 161.52 45.25 162.74 45.23 163.92 46.97 166.22 46.67 169.27 43.94 170.07 43.91 172.08 41.82 173.07 41.79 175.51 39.11 178.07 37.91 178.71 37.89 180.47 39.63 180.94 41.36 183.06 44.45 184.18 46.36 185.59 48.6 187.35 54.42 191.66 56.61 191.9 56.59 193.88 58.44 192.56 60.87 194.21 60.07 197.34 60.98 198.69 61.36 198.99 64.16 198.89"/><polygon id="map__powiat_sremski" class="cls-1" points="142.37 260.04 140.63 259.32 139.57 258.89 139.58 258.88 139.58 258.88 142.44 255.75 142.18 255.51 139.38 256.69 137.18 254.88 137.89 249.87 140.05 249.03 140.15 248.71 137.92 248.93 135.07 247.44 133.36 247.1 130.52 247.25 127.11 247.72 124.1 247.9 124.39 244.29 124.89 241.31 123.5 239.87 122.87 237.85 120.4 236.1 120.85 234.45 120.54 233.63 117.63 234.95 115.57 237.81 115.57 237.81 115.57 237.81 112.73 234.22 110.93 232.37 106.67 234.25 106.67 234.25 106.67 234.25 104.45 231.21 102.55 230.8 101.31 232.17 101.31 232.17 101.31 232.17 99.16 231.74 94.19 232.63 92.96 236.94 95.53 240.2 98.6 241.88 99.09 243.95 101.53 245.12 100.84 248.25 103.86 248.91 105.3 251.34 103.5 254.06 102.74 256.38 103.31 257.3 105.91 257.15 105.91 257.15 105.91 257.15 108.38 258.92 108.94 259.74 111.73 259.21 111.73 259.21 111.73 259.21 112.55 261.62 112.56 261.64 113.13 262.28 113.14 262.28 113.41 262.6 113.77 263.01 117.89 265.66 116.12 268.39 117.95 269.52 120.25 270.02 121.33 269.75 122.91 268.73 122.6 266.65 125.41 264.76 125.79 264.7 127.27 264.46 127.66 264.12 126.94 262.31 128.48 263.4 129.07 262.89 129.16 262.81 130.38 262.42 131.6 262.04 134.8 261.91 134.8 261.91 134.8 261.91 137.57 262.35 139.06 262.81 141.91 261.86 142.37 260.04"/><polygon id="map__powiat_sredzki" class="cls-1" points="121.91 233.02 122.42 234.38 122.12 235.48 124.15 236.91 124.83 239.08 126.5 240.82 125.87 244.48 125.73 246.3 126.96 246.23 130.38 245.76 133.47 245.6 135.67 246.06 138.22 247.39 142.24 246.99 141.28 250.17 139.25 250.95 138.78 254.25 139.63 254.95 142.47 253.75 144.57 255.64 142.13 258.31 143.42 258.84 145.44 257.88 149.46 258.64 152.15 257.73 155.8 255.33 157.89 252.53 157.92 249.09 159.41 246.89 161.69 244.84 162.23 241.5 163.25 239.74 161.38 239.86 159.29 241.75 157.37 243.4 155.7 242.74 155.13 239.99 154.01 237.43 152.56 234.43 153.45 230.78 156.99 230 157 229.05 155.18 225.98 154.47 223.99 157.2 222.38 159.58 219.91 158.87 218.34 156.42 219.01 153.64 218.78 152.6 216.86 151.09 213.53 152.52 210.45 151.69 208.72 149.21 208.69 148.09 207.29 145.39 207.26 142.94 209.8 140.99 209.91 140.64 211.87 136.35 213.22 134.17 217.58 131.86 218 131.98 220.14 128.23 221.55 124.36 222.41 124.13 223.48 127.75 222.93 129.38 226.24 126.85 227.28 127.56 229.42 125.75 231.83 123.31 232.38 121.91 233.02"/><polygon id="map__powiat_slupecki" class="cls-1" points="182.25 208.9 184.1 211.58 183.57 213.69 179.69 214.88 182.31 219.43 185.99 220.83 188.41 223.29 188.17 225.99 186.54 227.71 187.48 230.05 189.57 231.75 193.04 232.6 192.05 237.59 189.66 237.39 187.32 242.65 187.97 244.3 190.92 247.69 193.09 247.9 195.25 248.71 197.1 248.13 200.93 247.1 204.57 246.84 205.69 245.27 210.14 242.88 210.06 241.24 206.5 238.22 210.21 235.4 210.62 234.06 210.2 230.4 209.16 225.9 212.99 217.37 213.95 216.32 212.39 214.42 211.2 210.06 214.22 208.29 216.29 206 216.84 200.88 216.06 198.77 215.41 196.22 213.95 194.05 211.67 191.09 219.75 184.09 217.6 181.87 217.89 179.27 217.91 177.09 217.07 175.68 214.32 175.14 214.44 175.53 213.24 174.93 213.13 174.91 210.12 176.65 208.51 178.53 207.55 180.35 206.03 181.29 204.75 182.51 203.65 184.34 203.44 186.25 201.81 191.09 200.1 194.59 197.52 196.59 196.19 202.3 191.04 203.4 188.99 203.9 184.77 202.98 181.04 203.31 180.52 205.99 182.25 208.9"/><polygon id="map__powiat_rawicki" class="cls-1" points="120.02 308.64 120.02 308.64 118.06 305.44 114.99 306.47 114.21 308.96 110.13 309.55 110.13 309.55 110.13 309.55 108.21 307.98 105.1 306.28 102.51 305.79 99.91 306.98 99.91 306.98 99.91 306.98 96.51 306.24 96.34 303.19 94.99 301.92 91.34 300.77 90.69 300.84 85.66 301.41 85.49 302.53 82.72 305.17 79.6 307.15 78.8 307.21 77.87 307.84 76.75 308.54 76.58 310.32 76.94 311.75 78.29 312.16 80.76 312.8 82.24 313.65 84.78 314.38 89.08 315.03 90.02 319.6 90.5 320.95 91.26 322.7 92.13 323.56 94.34 324.56 99.53 325.35 101.87 326.81 104.02 328.87 106.73 330.03 108.83 329.88 110.73 329.58 113.34 329.21 115.29 329.59 116.05 329.17 116.41 328.17 118.54 326.52 121.04 326.34 123.46 327.14 125.49 327.64 129.02 326.63 130.68 326.52 131.26 325.95 131.69 324.99 131.57 322.35 131.4 320.06 132.28 318.15 133.1 317.52 132.35 312.69 129.44 312.17 125.26 310.41 122.94 308.35 120.02 308.64 120.02 308.64"/><path id="map__powiat_poznanski" class="cls-1" d="M113,157.27l-2.14,1.3-2.8,0-.89,2.54-1.57.16-.5,1.31,1.44.69,1.84,1.55,1.12,2.33-3.83,1-1.39,1.17-2.75.92-2.26-.38-2.31.75-1.69,1.22.17,3.17-2.57.57-1.55-2.82-.35-1.94-1.18.05.3,1-1.13,3.55,0,3.13-4.12-.33-.47-1.92-1.23-.13-1.75,0-.52.34.92,1.87-3.23,5.51-2,2.91.37,3.47-4.74.1-.23.93,3.55.7.5,3.36-2.26.34-.39,3.5-3.38,1.27-1.13-3-1-.29-1.45,2-1.6,1.17-2,.08-.24,1.27-.77-.59-.14,1,1,1.36,3.26,1.6L65.34,209l-1.49,1.46-.4.88,3.27.54-.84,3.23,1.61-.39,4.87-1.48.88,1.61.37,1.68-.25,3.09-1.72,2-1.28.85-.08.55,1.53.46,1.63,2.29.65,4.14.11,1.26,1.3-1.34,2.77-2,1.9-1.86,3.94,1.86,3.24-1.47,4.21,1.1L92,231l1.71.16,5.44-1,1.6.32,1.26-1.38,3.29.71,1.85,2.53,4.11-1.81,2.58,2.65,1.65,2.09,1.13-1.57,6.27-2.82,2-.44,1-1.34-.91-2.73,2.34-1-.43-.88-4.69.7.9-4.12,4.76-1.06,2.56-1-.13-2.37,2.87-.52,2.13-4.26,4-1.27.4-2.23,2.55-.14,2.49-2.59,2.68,0,.38-1.39-.11-2.12-1.77-2.87.53-2.77,4-1.73.73-2.32-1-1-.82-2-1.18-.92-1.65-2.33.9-1.58-2.94-1.37,1-3.64,0-2.19-1.82-.94-3,.12-2.61-1.83-3.2,1.44L131.22,175l-.64-2.7-2-.39-1.44.26-.71.13h0l-1-4.89.71-2.6-.33-1.59-2.27-.49L122,161.56l-3.12.74L117.82,159l2-1,.23-1.37-2.55-1.54-1.87.23ZM109,213.91l-1.33-1.7-2.27-2-1.26-1.71-1.05-2.15-2.25-.74-4.25.94-.54-3.79-2.47-2,.32-8.6-.79-3.75-.27-1.79-1.25-.91-1.42.11-1.16,2.05-3-.94,1.42-4.19,4.08-1.53,3.39,1,2,2.43,2.83.82,2.57.19,0-2.12,1.86-2,2.23-.95,4-.84.3,6.1-.19,2.83-.16,1.36,1.08.41,3.15-1.35,2.86,1.25-.2,2,3.26,1.77-2,2.78.89,2.53.86,5.14-1.9,3.4-4,1.16-.61,1.09.3,2.82-.46,2.09-1.78,1.46Z" transform="translate(0 0)"/><polygon id="map__powiat_pleszowski" class="cls-1" points="190.75 249.18 190.65 249.61 186.82 249.94 183.03 250.56 180.48 252.13 179.46 251.97 179.61 253.02 180.39 254.46 181.42 255.95 180.15 258.93 181.74 261.81 180.11 264.1 181.02 266.32 180.8 269.27 181.5 271.04 181.22 273.03 179.5 274.89 177.9 276.44 179.4 279.96 174.9 280.9 173.22 278.56 171.76 278.01 168.9 278.83 166.02 278.57 163 277.69 162.5 277.65 162.45 280.56 163.65 283.02 163.45 285.55 165.87 287.07 168.11 286.41 171.09 288.19 171.88 292.23 173.54 292.71 174.66 291.28 176.91 291.14 179.98 289.4 183.26 290.07 184.4 293.19 186.83 293.5 191.04 293.41 193.28 292.88 197.1 294.4 202.09 295.76 204.25 294.54 207.35 295.91 207.96 298.79 208.17 298.78 208.09 298.63 208.28 298.63 208.29 298.54 208.61 298.63 209.28 298.63 210.32 298.24 210.81 297.16 209.47 295.57 208.47 293.13 207.31 289.99 206.3 286.13 204.98 283.05 203.64 280.1 202.2 277.58 200.25 275.12 203.13 272.69 202.82 269.61 205.19 267.15 202.94 261.58 203.3 261.38 203.15 259.75 204.49 256.15 205.49 253.86 205.11 250.61 202.04 249.87 201.82 248.55 201.12 248.59 201.1 248.59 197.52 249.57 195.21 250.3 192.66 249.34 190.75 249.18"/><polygon id="map__powiat_pilski" class="cls-1" points="143.15 52.02 141.39 54.68 138.72 56.32 137.08 57.03 136.24 59.41 135.54 60.77 133.46 61.15 131.14 61.47 127.99 61.77 126.15 62.81 124.38 64.83 123.63 66.83 121.8 68.13 121.8 68.13 121.8 68.13 118.8 67.73 116.73 67.87 112.21 69.47 109.07 71.43 108.48 75.06 103.2 76.23 103.2 76.23 103.2 76.23 101.45 74.45 98.64 72.83 95.54 72.95 95.41 72.96 95.41 72.96 95.41 72.96 93.17 70.83 93.79 68.58 93.83 66.14 95.81 65.28 95.94 63.93 95.5 61.97 93.71 59.73 94.09 57.76 93.82 57.28 92.03 57.72 92.03 57.72 92.03 57.72 90.48 55.95 90.46 55.95 87.75 54.97 86.23 56.01 85.21 57.13 84.35 59.16 84.32 60.95 83.24 62.35 83.74 64.11 82.92 66.21 80.93 66.82 79.62 64.98 78.25 64.19 77.12 64.19 74.6 65.66 73.38 67.5 72.1 70.1 69.67 72.82 63.59 75.36 61.52 74.77 60.63 75.14 60.05 75.98 59.17 78.26 58.7 78.5 61.09 79.68 64.49 81.09 68.55 82.25 70.59 80.75 74.3 81.24 75.54 82.68 77.71 82.2 80.68 84.37 83.07 84.28 83.46 81.28 85.89 80.8 88.19 81.26 90.46 84.28 87.65 87.23 85.45 88.9 85.04 93.99 83.11 94.93 81.37 95.05 80.95 95.52 83.02 97.78 83.96 101 82.55 104.06 83.95 107.54 86.24 107.86 88.13 106.99 89.76 104.96 91.19 102.36 93.16 99.77 95.07 96.9 96.29 94.7 97.25 93.26 101 93.54 105.42 93.94 108.45 93.45 111.51 92.66 114.22 91.64 117.85 91.17 121.77 90.35 125.58 90.22 129.84 89.61 133.51 88.97 136.24 89.04 138.9 89.92 141.97 90.13 145.15 89.32 148.14 89.15 149.12 86.93 149.6 82.91 150.51 80.69 151.69 80.28 151.39 79.21 148.74 76.08 148.45 70.83 146.3 69.94 147.72 66.63 151.63 65.82 154.48 65.7 156.38 64.61 157.07 62.97 157.92 60.56 154.24 55.34 151.17 50.64 146.48 46.95 144.9 46.38 144.24 46.54 143.94 48.23 143.15 52.02"/><polygon id="map__powiat_ostrzeszowski" class="cls-1" points="221.26 337.56 218.59 335.23 215.78 334.21 213.54 333.21 212.01 332.1 209.52 332.06 208.56 329.9 207.04 328.81 205.53 330.4 203.38 330.7 201.62 333.67 197.52 337.19 195.81 339.99 193.67 343.02 190.11 343.81 186.88 341.69 184.23 342.37 183.1 343.48 183.52 345.7 187.05 345.25 188.39 348.56 184.7 350.13 183.38 351.59 183.31 351.85 184.58 353 185.13 355.02 183.38 356.05 182.45 357.75 181.6 360.28 181.98 361.74 183.57 362.86 184.09 366.17 185.47 367.94 185.87 370.22 185.82 370.42 187.91 371.8 189.33 371.51 188.86 368.91 191.07 367.77 192.29 365.22 194.56 363.63 197.08 363.66 199.64 360.75 201.27 363.62 202.87 364.77 204.93 362.95 206.8 363.91 207.51 362.64 209.2 360.1 212.15 356.78 214.06 359.9 215.92 359.07 218.16 362.18 218.52 361.8 221.6 362 222.65 360.03 224.45 358.07 227.89 358.64 229.31 355.75 229.18 353.02 226.79 350.3 230.49 347.5 241.64 352.99 244.51 346.44 246.09 344.91 245.98 340.49 245.66 338.29 244.68 336.57 244.61 336.56 241.72 336.15 239.51 335.95 237.29 334.53 234.84 334.51 231.52 335.29 228.26 336.59 225.06 334.74 223.8 334.86 222.93 335.68 221.26 337.56"/><polygon id="map__powiat_ostrowski" class="cls-1" points="212.24 308.03 209.56 308.48 206.87 305.2 208.68 304.07 207.98 302.04 208.13 300.28 206.75 300.35 206.04 296.97 204.33 296.22 202.3 297.37 196.62 295.82 193.17 294.45 191.15 294.91 186.75 295.01 183.31 294.57 182.14 291.38 180.23 290.98 177.35 292.62 175.42 292.73 175.06 293.19 176.8 295.44 178.81 297.84 181.17 299.86 178.72 303.13 175.94 302.93 175.09 303.38 175.87 306.19 172.78 309.01 171.85 310.38 171.44 312.4 168.13 313.31 166.14 314.51 165.6 315.81 165.91 317.88 165.48 318.91 167.7 318.53 168.48 320.75 167.87 323.37 167.1 327.47 166.95 327.57 168.22 329.81 168.4 332.97 167.14 335.98 165.5 336.99 163.5 338.1 162.98 338.87 162.78 340.45 162.25 342.65 162.88 344.74 163.5 346.5 164.96 347.83 165.14 350.8 165.11 352.54 165.93 353.08 169.15 352.84 170.81 351.4 173.45 351.44 175.44 353.11 177.88 353.5 179.23 354.08 180.06 353.46 180.29 352.15 181.89 351.37 182.01 350.86 183.81 348.88 183.83 348.87 183.84 348.87 186.44 347.76 186.09 346.89 182.31 347.37 181.48 342.97 181.5 342.95 181.5 342.95 183.49 340.99 187.16 340.05 190.43 342.18 192.8 341.66 194.55 339.17 196.46 336.12 196.48 336.1 196.49 336.09 200.56 332.6 202.45 329.31 202.46 329.31 202.48 329.27 204.84 328.94 206.89 326.78 209.81 328.88 210.54 330.53 212.55 330.56 214.4 331.9 216.39 332.78 219.42 333.88 221.17 335.41 221.85 334.63 222.78 333.76 222.02 331.91 220.77 330.49 218.84 329 216.34 327.83 214.1 325.93 213.2 322.84 212.7 319.48 214.13 316.51 214.16 316.5 214.18 316.44 216.18 314.98 216.45 314 216.45 312.67 216.17 311.9 213.96 311.87 213.75 309.93 213.35 310.16 212.24 308.03"/><polygon id="map__powiat_obornicki" class="cls-1" points="76.02 145.77 75.55 147.67 76.44 148.34 78.9 149.27 81.29 151.74 77.96 154.61 78.93 156.7 79.39 158.94 80.79 160.53 81.25 164.16 83.61 166.62 84.06 169.07 84.93 169.53 92.16 169.26 92.16 169.26 92.16 169.26 92.16 169.26 92.72 172.37 93.58 173.87 93.82 173.82 93.68 171.1 96.34 169.23 99.11 168.33 99.11 168.33 99.11 168.33 101.36 168.7 103.48 168 104.9 166.79 107.32 166.14 107.12 165.73 105.6 164.46 103.15 163.33 104.47 159.84 106.02 159.68 106.95 157.03 106.95 157.03 106.95 157.03 110.4 157.07 112.12 156.02 115.03 153.88 115.03 153.88 115.04 153.88 115.2 153.86 116.68 153.67 116.61 153.54 117.67 153.54 119.27 152.35 119.27 152.35 119.27 152.35 119.3 152.35 121.77 152.38 124.92 152.02 124.92 152.02 124.92 152.02 126.04 153.8 126.62 154.03 126.98 153.49 126.13 151.42 124.76 146.69 124.76 146.69 124.76 146.69 126.86 145.84 126.36 143.93 126.05 141.15 125.66 138.18 125.18 138.17 123.06 139.91 118.5 139.44 115.84 136.7 116.25 133.99 115.9 130.84 111.2 131.04 107.63 131.38 103.95 128.16 101.54 126.16 96.92 125.04 95.22 122.48 93.28 123.67 90.6 123.63 90.57 123.63 88.63 124.12 88.61 125.16 90.42 126 90.75 128.6 94.43 132.42 96.38 135.59 95.15 137.68 93.27 139.64 92.49 141.05 91.6 144.06 90.51 146.78 86.03 147.42 85.58 144.24 86.01 143.05 84.54 142.04 82.58 141.55 79.08 142.18 75.66 142.94 76.02 145.77"/><polygon id="map__powiat_nowytomski" class="cls-1" points="31.41 221.19 32.57 219.19 32.97 216.62 35.66 214.63 42.05 213.83 44.61 213.14 47.67 213.77 53.2 215.84 56.49 218.27 57.62 217.91 59.94 216.67 61.78 218.17 63.3 218.84 65.16 217.14 64.39 215.54 64.28 215.31 64.28 215.27 63.79 214.21 64.47 214.56 64.86 213.08 61.26 212.49 62.7 209.47 63.92 208.28 64.23 205.97 61.62 204.7 59.97 202.56 60.29 200.35 58.45 197.61 59.15 194.86 58.46 194.39 55.06 196.82 55.09 193.24 53.85 193.1 47.69 188.55 45.45 186.78 43.65 185.46 40.47 184.33 38.77 182.26 36.77 181.71 36.66 181.62 32.21 182.91 30.41 178.83 27.93 178.2 26.05 178.29 24.77 180.97 21.2 180.57 19.09 186.32 14.31 186.91 11.58 181.82 9.03 182.03 9.04 182.52 9.01 185.07 7.88 186.84 5.7 187.68 3.56 187.45 2.61 186.82 2.29 187.22 3.81 189.37 5.44 190.7 7.49 191.92 9.27 193.07 9.22 195.27 8.3 196.89 7.91 201.29 7.88 203.49 8.38 206.81 5.51 212.74 4.29 214.55 3.63 216.81 3.48 226.25 5.29 226.15 5.87 226.12 7.62 224.58 10.39 224.46 11.52 222.34 11.52 222.34 11.52 222.34 14.48 222.59 16.45 222.09 16.64 220.55 19.19 219.81 20.84 218 21.22 218.01 25.71 218.07 31.41 221.19"/><polygon id="map__powiat_miedzychodzki" class="cls-1" points="31.48 177.56 33.05 181.1 36.39 180.13 36.42 177.8 38.31 176.8 40.29 174.87 40.33 172.12 42.42 171.12 42.45 168.94 45.28 168.12 45.42 166.66 43.72 164.41 43.76 162.14 45.82 159.93 45.82 159.93 45.82 159.93 49.68 160.46 49.7 159.31 49.19 157.32 45.67 156.91 43 155.7 42.08 153.62 40.38 153.59 38.16 151.7 37.44 149.79 35.99 149.89 35.99 149.89 35.99 149.89 33.99 149.49 32.02 149.29 29.97 148.68 28.48 147.5 25.84 147.12 23.86 145.08 21.21 143.61 20 141.82 16.67 139.46 16.46 140.14 14.23 142.51 11.08 143.44 6.49 144.09 2.97 144.86 2.33 145.31 2.5 145.83 2.83 148.81 2.13 151.45 0 152.09 0.09 154.43 1.45 156.21 2.07 161.34 3.17 162.77 4.68 164.31 5.03 166.68 5.53 169.11 5.83 172.69 8.2 175.84 8.91 178.97 8.98 180.53 10.8 180.38 12.44 180.25 12.44 180.25 12.44 180.25 15.15 185.29 17.99 184.94 20.2 178.94 20.2 178.94 20.2 178.94 23.88 179.36 25.09 176.84 28.08 176.69 28.08 176.69 28.08 176.69 31.48 177.56"/><path id="map__powiat_leszczynski" class="cls-1" d="M85.69,292.25l3,0,2.1-.5,2.41,0,2.36-.74,1.12-.82.79-2.28.23-3,1.22-2.37,2-1.39-2-3.23-2-3.14-.11-3-1.73-.5-1.94-.81L91.7,269l-2.85-.22-1.37-2L81,265.61l-4.62.44-2.07-.88-3.21.27-3.8,1-1.88-.55-2.82.95-1.94.34-3.58.33L54.45,264l.06-.11-2.59-1.58,1.56-1.52-.72-.73-2.54,2h0l-3-.71-1.93,2.78-2.2,2.15-1.77,3h0l-3.11,0-2,.52h0l-3.1-.6-3.23-.4-1.87-.33-.15.69-.66,1.85-1.39.67-.15.49.49.52,2.15-.14,2.53,1.23,2.25,1.53,1.21,2,.21,1,.87.2,1.39-.73.39-2,1.16-2.23,1.39-1.14,3,0,1.6,1.25,1.8,1.67,2.54.49-.07,2.8,1,.53,2.37,1,1.15,3.33.32,3.42-.39,3.2.84,1.59.77.09.64.09c.34,0,.69.05,1,.07a8.46,8.46,0,0,1,2.61.41,4.58,4.58,0,0,1,1.48,1,3.49,3.49,0,0,0,1,.73,2.75,2.75,0,0,0,1.16,0,8.46,8.46,0,0,1,.87-.05l.72,0a5.77,5.77,0,0,1,1.75.07,5.66,5.66,0,0,1,1.64.75l.35.2.43,1.38,1,.53,2.33.43,2.1.91,2.18.81,1.77,3.68,1.54,1.19.09,1.44,2.47-1.56,2.22-2.14.34-2.34Zm-21.38-5.81.6-3.13-.2-2.74,2.16-.19,1.25-1.57,2.6.05,1.57.32,2.36-1.61.85,3.22-1.08,1.95.31,1.92-1.21,2-1.41,2.91-5.72.14Z" transform="translate(0 0)"/><polygon id="map__powiat_krotoszynski" class="cls-1" points="175.62 296.49 174.01 294.4 170.58 293.41 169.74 289.13 167.91 288.04 165.65 288.69 161.88 286.34 162.12 283.31 160.94 280.89 161 277.54 160.4 277.48 157.24 278.15 157.24 278.14 157.24 278.15 155.32 277.8 152.95 279.25 150.72 279.95 150.72 279.95 150.72 279.95 147.79 279.72 143.9 278.96 143.73 278.95 142.12 278.81 142.16 278.99 143.01 280.94 143.69 283.45 139.69 284.3 139.68 284.64 143.45 285.38 143.61 288.94 142.3 291.63 141.72 293.46 143.43 295.78 141.71 299.8 137.52 300.88 136.33 297.31 133.44 297.57 131.66 295.73 128.88 295.15 126.93 300.18 128.94 302.63 127.76 306.22 124.23 306.67 124.17 307.42 126.16 309.2 129.94 310.75 133.67 311.39 134.5 316.75 136.72 316.17 139.91 315.85 144.8 315.95 148.3 317.07 151.29 317.98 154.37 318.55 157.28 319.21 160.41 321.18 163.06 322.76 164.26 325.26 165.78 326.36 166.4 323.06 166.91 320.88 166.7 320.29 163.04 320.91 163.07 320.84 163.04 320.85 164.35 317.71 164.05 315.69 164.06 315.67 164.05 315.62 164.95 313.48 167.63 311.89 170.15 311.2 170.44 309.79 171.7 307.96 174.15 305.73 173.31 302.72 173.35 302.71 173.33 302.63 175.61 301.4 178.01 301.57 179.08 300.15 177.68 298.95 175.62 296.49"/><polygon id="map__powiat_koscianski" class="cls-1" points="57.77 265.97 60.44 265.73 62.26 265.4 65.37 264.34 67.3 264.91 70.89 263.95 74.54 263.65 76.6 264.52 81.04 264.09 84.24 264.67 88.36 265.48 89.67 267.35 92.38 267.56 94 269.25 95.58 269.91 97.82 270.55 100.95 271.26 102.53 269.88 104.5 269.2 107.01 267.65 109.52 266.65 109.54 264.18 111.55 262.76 111.22 262.39 110.73 260.93 108.26 261.4 107.22 259.89 105.48 258.68 102.52 258.84 101.09 256.57 102.2 253.31 103.53 251.29 102.9 250.23 99.05 249.39 99.81 245.96 97.8 245 97.29 242.88 94.55 241.37 91.31 237.26 92.64 232.6 91.3 232.47 90.69 232.42 90.2 228.67 87.48 227.96 84.1 229.49 80.47 227.78 79.2 229.02 76.44 231.04 74.36 233.21 74.41 233.79 72.39 236.13 71.67 239.58 70.14 241.26 66.75 242.24 65.36 244.57 62.26 246.24 61.11 248.44 60.27 250.71 59.79 253.11 59.04 253.18 59.86 258.1 56.26 263.94 57.77 265.97"/><path id="map__powiat_koninski" class="cls-1" d="M203.35,248.64l3.12.76.56,4.69-1.15,2.62-1.2,3.24.09,1,2.17.48,4.12,1.63L217,265l2.69-.95,4-.55.48-2,2.86-1.94,2.37-.91,1.93-3-1-1.8-.86-2.23,0-2.4.65-2.39L235,244l2-2.67,3.76.9,2.28-3.36,2.83.38,3.28-3.53,3.47-.24-.2-1.22.83-4.4,3.63-3,2.43-3.53-3.42-3.51.49-3.77,2.76-.89.89-1.9,4.37-1.11.65,2.41,1.6-.47.57-3.3,1.75-1.29-1.57-2.33-.81-6.86.27-2.23,1.91-1,1.49-.58,1.5-.17,2.4.32-.53-1-1.38-.23-1.29-3.71-2.19-1-2.17-.07-2.62-.91-.75-2.56-1.82-1.18L259.87,184l-2.3-.51-1.41.7-1.22,3-3.66.39-2.69.63-2.42-3.49-.76-2.4,0-2.67-.27-1.47-1.34-.7-.57.07-.54,3-3,2.33-1.56,2.1-2.53,1.48-1.26,1.47-4.82.15-1-2.36-2.94-.38-2.52-.61-1.72-.22-.18.36-7.49,6.49,1.45,1.87,1.66,2.56.66,2.59.88,2.37-.64,5.95-2.66,2.89L213,210.77l.8,2.95,2.19,2.66-1.76,1.92-3.45,7.75,1,4.1.47,4-.65,2.1-2.61,2,2.63,2.23.17,3.23-5,2.68-1.33,1.86-.46,0-1.6.12Zm24.16-25.39,3.47-.13.62-1.41-.49-2.2-1.63-.16L228,217.81l-.05-.18a2.77,2.77,0,0,1-.1-.93,2.64,2.64,0,0,1,.82-1.73l.17-.17,1.68-.27.42-1.45,1-2.47,3,1.14,1.85.36,2.47.64.84,2,.69,3.3-.83,3.2-1.83,1.4-.51.92,1.41.36,2.34,1.66-1.18,2.57-2,0,.11,3.16-1.07,3.25-2.67.8-5.35.14-.24-2.38.62-2.52-2.24-1.34-.38-2.52Z" transform="translate(0 0)"/><path id="map__powiat_kolski" class="cls-1" d="M274.52,198.16l-2.8-.37-1.21.14-1.12.46-1.15.62-.16,1.28.75,6.32,2.17,3.23-2.43,1.78-.62,3.63-4,1.16-.66-2.46-2.25.57-.86,1.85-2.49.8-.26,2.1,3.77,3.87-3.34,4.79-3.29,2.7-.67,3.6.22,1.28,1.85,1.43,3.32,2.39,2.75.85,3.33.42,1.88.53,1.84.79,1.42-.82,2.75-1.12,1,1.62L274,245l.12,2.6.6,2.54.89,1.08,1.28,1.18,3.9-2.25,1.55,1.81,3.62.74,2.05-.15,1.63-.56.57-1.89.26-.14a1.85,1.85,0,0,1,.88-.25l.19,0a5.12,5.12,0,0,1,1.82.07,4.1,4.1,0,0,1,1.2.61,3.63,3.63,0,0,0,.74.4,9.24,9.24,0,0,0,2.12.37l.4,0,0-.79.25-2.29,1.44-2.21.64-1.08-.1-1.27-1.85-1.06-1.57-1.38.1-6.54,1.8-3.89,2.71-.38,3.67-2.06,2.67,0,3.08.44,2,1.37a2.07,2.07,0,0,0,1-.27l.11-.78L312,227.3l1.83-3.06,1.45-.29,0-1-.74-1.93-.7-.12-2.06-.54-2.38,1-1.62-2,1.18-2.06.5-1.56-.73-2.13.67-1.68.24-1.37-1.35-.41-2-1.62-2-1.27-1.23-1.52-.33-3.2-2.31-1-.79-.49-.61,1.3-1.31,3.12-3.44.93-2.4,1.77-3.05-.26-1.44.16-1,.6-1.27,1.06-2.83.18-3-.73-1.95-6.86-.14-2.09-1.85-1.4-.13-.08Z" transform="translate(0 0)"/><path id="map__powiat_kepinski" class="cls-1" d="M184,376.62l.12,3.93,1.54,2.87.59,2.39,1.63,1.18L189,388.2l2.66,0,2,2.12-.44,2.65-.81,3.05-1.74,2v1.13l3.28,1.17,2.84,1.48,3.26-1.15,3,.57,8.31-2.57,4.61-5.19,3,.24,1.57-.5,1.45,0c0-.12,0-.24,0-.35a2.75,2.75,0,0,1,.4-1,2.32,2.32,0,0,0,.21-.42,10.61,10.61,0,0,0,.23-2.13,3,3,0,0,1,.84-1.75,2.88,2.88,0,0,0,.27-.34l1.61-2.38,0-1.81-.35-2.31.2-2.11-.42-.76h-1l-2.73.55-2.77-.55-.2-2.71.22-3.27-.12-2.78-.86-1.91L216,364.51l1.14-1.22,0,0h0l-1.68-2.32-1.95.86-1.53-2.51-1.58,1.77-1.56,2.36-1.39,2.49-2.25-1.16L203,366.68l-1.42-1-1.42-1-.74-1.32-1.63,1.85-2.73,0-1.55,1.1-1.27,2.64-1.67.86.53,3-3.46.71L185.44,372l-.36,1.42Z" transform="translate(0 0)"/><polygon id="map__powiat_kaliski" class="cls-1" points="230.47 259.71 230.42 259.8 230.42 259.8 230.41 259.81 227.67 260.86 225.52 262.34 224.93 264.8 219.97 265.49 217.02 266.55 210.56 264.47 206.45 262.85 206.35 262.83 204.94 262.52 206.95 267.49 204.38 270.15 204.7 273.32 202.33 275.33 203.47 276.79 204.97 279.42 206.35 282.45 207.73 285.69 208.73 289.54 209.87 292.59 210.81 294.88 211.66 295.84 213.86 295.73 215.89 293.77 218.97 294.44 220.44 296.19 220.89 298.2 223.89 300.53 224.05 304.35 224 304.37 224 304.44 221.73 305.52 220.42 308.61 220.4 308.61 220.37 308.7 216.4 308.43 215.18 309.13 215.31 310.39 217.22 310.42 217.95 312.54 217.92 314.3 217.48 315.93 215.32 317.5 214.25 319.72 214.68 322.56 215.42 325.08 217.23 326.62 219.69 327.76 221.85 329.45 223.36 331.22 224.22 333.31 225.4 333.21 228.38 334.93 231.12 333.84 234.68 333 237.73 333.04 240.01 334.49 241.89 334.67 244.67 335.05 244.73 334.51 245.37 331.27 245.57 328.91 245.6 326.74 243.34 325.39 243.39 323.33 244.97 321.62 245.34 319.91 245.72 317.45 245 313.53 246.55 310.73 248.78 308.93 249.09 307.67 249.89 305.46 249.96 303.11 250.71 300.9 250.91 299.06 250.36 296.91 250.82 295.12 252 292.31 252.88 289.79 254.95 288.9 255.47 287.1 254.13 285.31 252.36 283.52 249.3 281.82 248.35 279.69 247.66 277.96 245.85 277.65 242.11 277.42 239.77 274.2 237.73 269.92 236.79 266.98 234.55 264.83 233.05 258.8 232.16 257.06 230.47 259.71"/><polygon id="map__powiat_jarocinski" class="cls-1" points="163.66 242.01 163.08 245.6 160.49 247.94 159.41 249.55 159.38 253.04 156.73 256.51 152.72 259.12 149.56 260.19 149.56 260.19 149.56 260.19 148.58 260 145.64 259.44 144.91 259.79 143.78 261.41 143.63 261.2 143.17 263.02 139.08 264.39 137.18 263.8 134.72 263.41 131.77 263.53 129.92 264.14 129.74 264.29 132.06 265.92 134.62 266.75 136.49 268.16 138.28 269.58 138.6 272.4 140.38 274.09 141.67 276.95 141.76 277.28 144.1 277.48 148 278.24 150.55 278.44 152.41 277.85 155.01 276.22 157.22 276.62 160.3 275.97 163.34 276.22 166.37 277.11 168.75 277.31 171.82 276.44 174.17 277.32 175.55 279.23 177.31 278.87 176.12 276.07 178.43 273.84 179.8 272.36 179.96 271.22 179.28 269.5 179.5 266.56 178.41 263.91 179.97 261.71 178.49 259.02 179.72 256.12 179.11 255.25 178.14 253.36 177.91 251.74 177.41 251.67 175.64 248.44 174.94 246.41 174.98 243.91 174.28 240.01 173.76 239.74 170.07 240.01 165.23 239.6 165.06 239.62 165 239.73 165 239.73 163.66 242.01"/><polygon id="map__powiat_grodziski" class="cls-1" points="58.54 251.71 58.84 250.24 59.74 247.84 61.14 245.14 64.28 243.44 65.77 240.96 69.32 239.94 70.29 238.87 71 235.44 72.86 233.29 72.82 232.88 72.82 232.88 72.82 232.87 72.73 231.74 72.73 231.75 72.61 230.18 72.61 230.13 72.02 226.39 70.89 224.81 68.61 224.14 68.97 221.63 70.72 220.47 71.91 219.03 72.1 216.62 71.8 215.28 71.66 215.03 67.88 216.16 66.51 216.49 66.98 217.5 63.59 220.61 60.91 219.4 59.77 218.47 58.14 219.31 56.22 219.93 52.4 217.11 47.21 215.2 44.66 214.68 42.29 215.31 36.23 216.07 34.36 217.46 34.01 219.7 31.98 223.2 25.31 219.56 23.69 219.54 24.14 221.65 24.1 224.93 24.99 227.76 23.32 230.12 23.3 231.52 25.15 231.09 29.08 229.84 31.99 231.61 30.94 234 31.62 235.79 34.32 238.25 36.92 237.91 38.09 240.31 36.14 242.05 36.53 242.94 39.85 242.49 41.97 245.13 42.76 247.34 44.45 247.12 47.33 245.74 51.11 246.01 52.53 249.88 55.88 251.93 58.54 251.71"/><polygon id="map__powiat_gostynski" class="cls-1" points="141.71 295.98 140.05 293.74 140.93 291.02 142.09 288.63 142 286.63 138.15 285.87 138.21 283.08 141.83 282.31 141.58 281.38 140.72 279.4 140.23 277.38 139.14 274.98 137.17 273.11 136.86 270.37 135.57 269.34 133.82 268.03 131.3 267.21 128.58 265.31 127.93 265.87 125.98 266.19 124.23 267.36 124.54 269.47 121.82 271.17 120.27 271.56 117.27 270.86 114.02 268.87 115.81 266.1 112.69 264.06 112.57 263.92 112.5 263.93 111.04 264.96 111 267.67 107.63 269.02 105.07 270.59 103.3 271.2 101.38 272.88 98.7 272.33 98.7 272.88 98.34 272.62 98.41 274.4 100.17 277.2 102.89 281.66 100.03 283.64 99.12 285.4 98.87 288.38 97.89 291.19 96.08 292.47 93.37 293.32 90.91 293.29 88.81 293.79 86.95 293.76 85.88 299.87 91.49 299.24 95.77 300.59 97.8 302.51 97.94 305.02 99.74 305.41 102.32 304.23 105.71 304.91 109.11 306.77 110.57 307.97 113.06 307.61 113.78 305.29 118.71 303.64 120.81 307.06 122.71 306.86 122.85 305.34 126.63 304.85 127.26 302.94 125.21 300.46 127.95 293.42 127.95 293.42 127.95 293.42 132.42 294.35 134.02 296.01 137.38 295.71 137.38 295.71 137.38 295.71 138.5 299.07 140.62 298.53 141.71 295.98"/><polygon id="map__powiat_gnieznienski" class="cls-1" points="132.49 173.84 134.91 174.7 138.34 173.15 141.23 175.18 144.11 175.06 147.11 176.62 147.04 180.03 146.31 182.53 149.56 184.04 148.33 186.21 149.36 187.66 150.63 188.59 151.49 190.75 152.89 192.18 151.86 195.44 154.56 196.71 156.52 198.59 157.86 200.43 158.21 200.47 158.13 198.87 158.65 195.97 163.66 196.7 165.65 197.4 170.26 198.01 172.69 199.77 177.52 200.74 179.93 201.9 184.87 201.47 188.97 202.36 190.71 201.93 194.95 201.03 196.18 195.73 198.91 193.61 200.43 190.52 201.99 185.85 202.19 183.86 203.65 181.5 205.18 180.06 206.41 179.29 207.31 177.61 209.26 175.42 212.28 173.66 211.89 172.4 210.45 171.66 208.3 171.63 206.02 172.54 201.81 172.5 200.98 170.7 201.6 167.33 201.66 164.93 199.6 163.34 198.41 161.95 194.46 160.46 191.34 158.93 190.15 160.22 187.95 160.22 186.71 158.6 185.54 158.87 185.84 161.69 184.67 163.5 182.46 166.03 178.97 165.45 179.01 162.38 179.74 160.63 178.96 158.2 176.63 158.94 175.71 154.56 176.49 151.3 175.37 149.25 173.67 149.23 171.53 150.01 170.19 151.69 167.32 152.8 165.65 154.63 162.98 154.33 160.1 153.18 159.89 149.4 160.95 148.79 161.24 146.9 160.45 146.15 158.75 146.92 157.99 148.15 156.81 150.42 156.4 152.34 154.63 153.5 152.95 155.09 150.98 156.25 147.91 155.89 146.49 160.4 143.03 160.91 140.55 162.28 139.26 164.35 137.33 166.07 136.53 169.02 133.08 170.01 129.89 169.95 129.71 170.58 131.81 170.99 132.49 173.84"/><path id="map__powiat_czarnkowsko_trzcinski" class="cls-1" d="M89.08,108.21l-2.61,1.19-3.59-.49-2-4.89h0l1.46-3.14-.69-2.34-2.74-3h0l1.71-2,2.07-.14.89-.43.4-4.91,2.68-2,1.81-1.9-1.17-1.55-1.45-.29-1.07.21-.42,3.19-4.18.16-2.84-2.08L75,84.33l-1.45-1.68L71,82.32l-2.15,1.57L64,82.51,60.47,81l-3.22-1.58-1,1.63v1.48l-.06,2.3-.26,2.46-2.77,1.92-1.06,2.48-3.82.18-2.6.52-3.49.32-2.81.5-2.55,1.66-2.57.75-3.69,0-4.31-1.07-2.06-1.16-2.36-1-2.05-.71-.56,1.67L17.9,96,16.66,97.5a6.27,6.27,0,0,0-.06,1.14c0,.77,0,1.57,0,2.37s-.15,1.81-.25,2.71c-.05.38-.12.75-.2,1.13a7.34,7.34,0,0,0-.2,1.64,3.94,3.94,0,0,0,.4,1.32l.07.15a3.18,3.18,0,0,0,.34.55,3.08,3.08,0,0,1,.65,1.36,3.57,3.57,0,0,1-.26,1.63A5.52,5.52,0,0,0,17,112c-.05.22-.11.43-.17.64a5.19,5.19,0,0,0-.22,1,8.23,8.23,0,0,0,.1,1.54l0,.42c.09.78.21,1.54.34,2.26s.35,1.62.54,2.41l.15.59a8.77,8.77,0,0,1,.35,1.86v.18l-1.19,2.27-3.23,1.14-.29,1.86.5.66.89,1.27,1.15,1.78.16,2.2,1.24,3.17-.2.66,3.63,2.58,2.63-.13,1.28.91,1-1.55,1.63-2.1,1.59-1,2-1.65,2.78-2.71,3.76-.14,3.87,0,3,1.58,3,2.15,4.16-.34,1,3.63,1.4-.16.57-3.37,3.09.07,2.77.83,3.61,2.15-1.65,2.5.56.46L65.24,140l4.34.5,2.9,1.35,2.73-.29,3.57-.8,3.85-.69,2.65.71,2.54,1.73-.7,1.94.19,1.32,2.13-.3.75-1.85,1-3.18,1-1.71,1.88-2,.64-1.1-1.45-2.33-3.86-4L89,127l-1.94-.91,0-3.15,3.25-.82,2.47,0,1.71-1L93.1,117l.24-4.47-2.73-6.22Z" transform="translate(0 0)"/><polygon id="map__powiat_chodzieski" class="cls-1" points="102.23 124.79 104.92 127.02 108.13 129.82 111.09 129.54 115.74 129.35 115.74 129.35 117.05 129.3 117.24 129.29 117.24 129.29 117.51 129.28 117.51 129.28 117.51 129.28 120.31 130.1 120.82 129.61 119.59 127.4 120.46 123.87 122.15 120.39 125.81 118.16 130.23 117.5 129.34 115.18 132.3 113.24 132.19 110.67 133.78 107.73 133.52 99.62 136.88 99.22 139.73 99.28 143.46 95.96 143.35 93.7 143.12 91.38 142.19 91.61 142.11 91.64 142.11 91.64 142.11 91.64 138.52 91.38 135.88 90.5 133.63 90.48 130.07 91.09 125.71 91.72 121.88 91.85 118.1 92.65 114.51 93.11 111.96 94.08 108.76 94.92 105.47 95.45 98.02 94.82 97.57 95.48 96.35 97.68 94.38 100.64 92.42 103.23 91.57 104.77 94.86 112.24 94.61 116.77 95.88 120.32 95.96 120.27 96.2 121.23 96.21 121.27 97.85 123.72 102.23 124.79"/></svg>